# xmcd
#
# Track frame offsets: 
#        150
#        12262
#        26612
#        40455
#        52775
#        66735
#        80225
#        92607
#        105772
#        118512
#        132392
#        147105
#
# Disc length: 2124 seconds
#
# Revision: 3
# Processed by: cddbd v1.5.2PL0 Copyright (c) Steve Scherf et al.
# Submitted via: ExactAudioCopy v0.99pb4
#
DISCID=9e084a0c
DTITLE=Little Walter - The Best Of Little Walter
DYEAR=1900
DGENRE=Blues
TTITLE0=My Babe
TTITLE1=Sad Hours
TTITLE2=You're So Fine
TTITLE3=Last Night
TTITLE4=Blues With A Feeling
TTITLE5=Can't Hold Out Much Longer
TTITLE6=Juke
TTITLE7=Old Mean World
TTITLE8=Off The Wall
TTITLE9=You Better Watch Yourself
TTITLE10=Blue Light
TTITLE11=Tell Me Mama
EXTD=
EXTT0=
EXTT1=
EXTT2=
EXTT3=
EXTT4=
EXTT5=
EXTT6=
EXTT7=
EXTT8=
EXTT9=
EXTT10=
EXTT11=
PLAYORDER=
